<svg version="1.1" id="Layer_1" xmlns="http://www.w3.org/2000/svg" xmlns:xlink="http://www.w3.org/1999/xlink" x="0px" y="0px"
	 viewBox="170 -180 1060 1060" style="enable-background:new 170 -180 1060 1060;" xml:space="preserve" width="1060" height="1060">
<style type="text/css">
	.st0{fill:#FF0000;}
</style>
<rect x="170" y="-180" width="1060" height="1060" rx="120" ry="120" fill="#ffffff" />
<path d="M1013.34,84.57c-0.78,9.53-1.26,19.04-4.14,28.34c-7.12,23.02-22.58,35.21-48.87,36.96c6.59-14.4,15.65-26.33,25.74-37.66
	c-12.95,7.78-23.05,18.46-31.43,31.41c-5.64-16.88,3.89-38.31,20.51-48.34c8.92-5.38,19.05-7.14,28.57-10.71
	C1006.94,84.57,1010.14,84.57,1013.34,84.57z"/>
<path class="st0" d="M816.22,201.59c43.17-14.08,84.89-27.68,128.32-41.85c-10.39,43.96-20.44,86.46-30.47,128.92
	c-2.43,0.57-2.78-1.53-3.48-2.66c-5.42-8.73-10.96-17.4-15.88-26.4c-2.45-4.48-3.86-4.87-7.62-1.17
	c-22.21,21.83-46.5,41.14-72.21,58.7c-44.26,30.25-92.49,51.22-145.25,60.93c-21.75,4-43.89,5.83-65.83,8.83
	c-13.8,1.89-27.42,4.64-40.47,9.77c-16.32,6.42-29.05,17-37.66,32.63c-1.41-4.93-1.24-7.31,0.65-14.38
	c6.37-23.8,22.59-38.48,44.45-47.84c22.87-9.8,47.25-13.81,71.54-17.87c64.45-10.78,120.28-38.83,168.35-82.83
	c14.69-13.44,28.4-27.82,41.91-42.42c3.01-3.25,1.54-4.36-1.46-5.77C839.95,212.93,828.86,207.61,816.22,201.59z"/>
<path d="M629.94,307.92c12.01-7.03,19.75-17.19,24.62-29.58c2.62-6.65,4.03-13.64,3.64-20.8c-1.12-20.15-13.92-31.89-35.97-32.42
	c-22.51-0.54-42.71,7.22-60.96,19.68c-50.95,34.77-79.79,83.63-89.61,143.99c-2.32,14.27-1.35,28.73,3.24,42.71
	c9.95,30.26,38.18,45,69.96,36.52c3.48-0.93,6.95-1.91,10.55-2.46c-10.29,7.56-22.04,11.12-34.5,12.83
	c-35.03,4.81-67.07-9.81-82.88-38.72c-11.18-20.45-12.9-42.75-9.25-65.34c8.4-51.96,35.62-92.77,76.3-125.02
	c26.66-21.14,57.05-34.63,90.81-39.16c21.37-2.87,42.92-3.02,63.43,5.75c17.64,7.54,29.97,19.6,31.02,39.76
	c1.07,20.47-8.9,35.47-25.84,45.97C652.37,309.13,640.78,310.99,629.94,307.92z"/>
<path d="M929.84,466.52c-8.53,16.09-21.21,25.31-38.05,28.67c-27.56,5.5-50.22-4.55-69.91-22.99
	c-18.53-17.35-31.84-38.69-45.1-60.04c-8.9-14.33-17.64-28.76-26.77-42.94c-2.5-3.89-1.71-4.99,2.26-6.74
	c9.8-4.34,19.44-9.09,28.86-14.18c4.06-2.19,5.76-1.79,8.29,2.24c15.76,25.13,30.83,50.74,49.45,73.96
	c10.74,13.39,22.34,25.91,36.77,35.56c16.06,10.74,32.87,14.36,51.23,6.51C927.41,466.31,928.15,466.52,929.84,466.52z"/>
<path d="M667.7,388.21c-3.77,13.29-8.91,25.36-15.37,36.81c-22.94,40.69-56.61,67.89-102.58,77.65
	c-33.58,7.13-66.49,5.16-95.62-16.08c-19.62-14.31-30.18-34.36-35.31-57.64c-0.24-1.11-0.3-2.27-0.3-3.41
	c0-0.61,0.29-1.21,0.75-2.94c3.7,9.81,6.94,18.77,12.41,26.62c19.38,27.79,46.3,40.22,79.83,39.29
	c37.97-1.05,65.2-20.76,86.82-50.06c8.85-11.99,15.61-25.21,21.01-39.06c1.52-3.91,3.31-5.63,7.68-6.07
	C640.35,391.99,653.61,390.03,667.7,388.21z"/>
<path d="M735.52,369.2c-6.33,20.3-11.92,38.81-17.89,57.2c-4.08,12.56-6.92,25.57-12.95,37.45c-9.86,19.41-25.93,28.62-47.49,29.01
	c-4.19,0.08-5.06-1.04-3.79-5.04c10.49-33.27,20.87-66.58,31.16-99.91c0.76-2.47,1.76-3.89,4.35-4.5
	C704.18,379.84,719.21,375.42,735.52,369.2z"/>
<path d="M705.2,322.16c5.25-16.8,10.11-32.62,15.13-48.39c3.87-12.15,6.69-24.69,12.66-36.09c10.12-19.31,26.82-27.71,47.95-28.77
	c3.92-0.2,4.56,0.9,3.34,4.69c-8.31,25.82-16.42,51.7-24.48,77.6c-0.64,2.07-1.39,3.66-3.25,4.88
	C740.76,306.48,724.18,315.29,705.2,322.16z"/>
<path d="M917.88,86.05c27.55,21.42,33.32,45.8,14.92,65.07c-1.4-11.79-2.05-23.29-8.52-35.17c1.28,13.05,4.25,24.27,1.45,35.71
	C905.65,142.81,899.58,113.06,917.88,86.05z"/>
<path d="M986.77,174.24c-10.48-3.42-21.18-2.91-32.43-1.27c7.39-12.15,21.11-17.91,34.65-15.08c11.02,2.31,20.1,8.44,29.02,14.89
	c1.83,1.32,2.4,2.46,0.34,4.23c-18.84,16.17-41.19,23.12-61.96,6.3c-1.06-0.86-2.41-1.34-4.82-2.64
	C964.38,175.67,975.59,175.22,986.77,174.24z"/>
<g>
	<path class="st0" d="M233.63,570.03h1.99c4.24,0,6.36,1.87,6.36,5.61l-0.12,19.07c-0.92,2.66-2.45,4.9-4.61,6.73
		c-2.16,1.83-4.67,3.22-7.54,4.17c-2.87,0.96-5.84,1.43-8.91,1.43c-6.07-0.08-11.22-1.72-15.45-4.92c-4.24-3.2-7.46-7.77-9.66-13.71
		c-2.2-5.94-3.3-12.9-3.3-20.87c0-8.47,1.18-15.74,3.55-21.81c2.37-6.06,5.9-10.74,10.59-14.02c4.69-3.28,10.41-4.92,17.14-4.92
		c4.4,0,8.58,0.73,12.52,2.18c3.94,1.46,7.42,3.86,10.41,7.23c2.99,3.37,5.27,7.87,6.85,13.52h1.12l-0.25-21.31
		c-2.41-1.33-5.44-2.49-9.1-3.49c-3.66-1-7.64-1.81-11.96-2.43c-4.32-0.62-8.77-0.93-13.33-0.93c-9.8,0-18.3,1.85-25.48,5.55
		c-7.19,3.7-12.71,8.91-16.57,15.64c-3.86,6.73-5.79,14.75-5.79,24.05c0,9.31,1.95,17.37,5.86,24.18
		c3.9,6.81,9.39,12.07,16.45,15.76c7.06,3.7,15.33,5.55,24.8,5.55c6.73,0,12.84-0.81,18.32-2.43c5.48-1.62,10.2-3.68,14.14-6.17
		c3.94-2.49,6.92-4.99,8.91-7.48v-20.56c-0.17-3.74,1.91-5.61,6.23-5.61h1.87v-1.25h-35.02V570.03z"/>
	<path class="st0" d="M347.4,605.98c-1.25-1.2-2.7-2.93-4.36-5.17c-1.41-1.99-2.76-3.93-4.05-5.79c-1.29-1.87-2.35-3.53-3.18-4.99
		c-0.83-1.45-1.41-2.51-1.74-3.18c-1.25-1.91-2.97-3.94-5.17-6.11c-2.2-2.16-4.51-3.61-6.92-4.36c4.07-0.66,7.37-2.03,9.91-4.11
		c2.53-2.08,4.4-4.55,5.61-7.42c1.2-2.87,1.81-5.75,1.81-8.66c0-3.9-0.77-7.17-2.31-9.78c-1.54-2.62-3.59-4.69-6.17-6.23
		c-2.58-1.54-5.48-2.66-8.72-3.37c-3.24-0.7-6.56-1.06-9.97-1.06h-12.21h-1.25h-15.95h-0.87h-8.1V537c0.08,0,0.31,0,0.69,0
		c0.37,0,0.69,0,0.93,0c1.74,0,3.26,0.6,4.55,1.81c1.06,0.99,1.69,2.24,1.93,3.7v61.1c-0.24,1.42-0.87,2.68-1.93,3.74
		c-1.29,1.29-2.85,1.93-4.67,1.93c-0.17,0-0.44,0-0.81,0c-0.37,0-0.6,0-0.69,0v1.25h8.1h0.87h16.32h0.87h8.1v-1.25
		c-0.17,0-0.58,0-1.25,0c-1.66,0-3.22-0.58-4.67-1.75c-1.45-1.16-2.18-2.78-2.18-4.86v-61.8c0.66,0.07,1.59,0.09,2.8,0.05
		c1.29-0.04,2.72-0.02,4.3,0.06c1.08,0,2.35,0.19,3.8,0.56c1.45,0.37,2.89,1.04,4.3,1.99c1.41,0.96,2.6,2.37,3.55,4.24
		c0.95,1.87,1.51,4.34,1.68,7.42c0.08,1.16,0.06,2.2-0.06,3.12c-0.12,0.92-0.27,1.62-0.44,2.12c-0.67,3.49-1.7,6.13-3.12,7.91
		c-1.41,1.79-2.97,2.99-4.67,3.61c-1.7,0.62-3.43,0.93-5.17,0.93c-0.92,0-1.95,0-3.12,0v1.12c1.16,0,2.43,0.6,3.8,1.81
		c1.37,1.21,2.6,3.14,3.68,5.79c0.25,1,0.69,2.24,1.31,3.74s1.35,3.03,2.18,4.61c0.83,1.58,1.66,3.14,2.49,4.67
		c0.83,1.54,1.62,2.85,2.37,3.93c1.91,3.07,4.01,5.5,6.29,7.29c2.28,1.79,4.98,3.01,8.1,3.68c3.12,0.67,6.92,1,11.4,1h10.47v-1.25
		c-1.74,0-3.28-0.25-4.61-0.75C349.94,608.04,348.65,607.19,347.4,605.98z"/>
	<path class="st0" d="M428.9,544.61c-3.91-3.41-8.56-6-13.96-7.79c-5.4-1.79-11.42-2.68-18.07-2.68c-6.56,0-12.55,0.89-17.94,2.68
		c-5.4,1.79-10.05,4.38-13.96,7.79c-3.91,3.41-6.9,7.52-8.97,12.34c-2.08,4.82-3.12,10.26-3.12,16.33c0,5.98,1.04,11.36,3.12,16.14
		c2.08,4.78,5.07,8.87,8.97,12.28c3.9,3.41,8.56,6,13.96,7.79c5.4,1.79,11.38,2.68,17.94,2.68c6.65,0,12.67-0.89,18.07-2.68
		c5.4-1.79,10.05-4.38,13.96-7.79c3.9-3.41,6.92-7.5,9.03-12.28c2.12-4.78,3.18-10.16,3.18-16.14c0-6.06-1.06-11.51-3.18-16.33
		C435.82,552.13,432.81,548.01,428.9,544.61z M418.87,591.34c-2.04,5.07-4.94,8.99-8.72,11.78c-3.78,2.79-8.21,4.17-13.27,4.17
		c-4.98,0-9.35-1.39-13.08-4.17c-3.74-2.78-6.65-6.71-8.72-11.78c-2.08-5.07-3.12-11.09-3.12-18.07c0-7.06,1.04-13.15,3.12-18.26
		c2.08-5.11,4.98-9.05,8.72-11.84c3.74-2.78,8.1-4.17,13.08-4.17c5.07,0,9.49,1.39,13.27,4.17c3.78,2.78,6.69,6.73,8.72,11.84
		c2.03,5.11,3.05,11.2,3.05,18.26C421.92,580.25,420.91,586.27,418.87,591.34z"/>
	<path class="st0" d="M530.47,537h1c1.41,0,2.6,0.54,3.55,1.62c0.95,1.08,1.1,2.83,0.44,5.23h0.07l-10.08,34.16l-21.89-44.01h-1
		l-19.75,43.75l-12.86-33.9h0.08c-0.83-2.41-0.71-4.15,0.37-5.23c1.08-1.08,2.28-1.62,3.61-1.62h1v-1.25H440V537h1
		c2.08,0,3.99,0.56,5.73,1.68c1.67,1.07,2.95,2.72,3.86,4.9l26.42,68.32h1.12c0-2.08,0.25-4.07,0.75-5.98
		c0.5-1.91,1.2-4.11,2.12-6.6l16.78-36.43l24.34,49.02h1.12c-0.08-1.83,0.04-3.72,0.37-5.67c0.33-1.95,0.87-4.26,1.62-6.92
		l18.04-55.46h0.02c0.75-2.32,2.08-4.05,3.99-5.17c1.91-1.12,3.82-1.68,5.73-1.68h0.87v-1.25h-23.43V537z"/>
	<path class="st0" d="M620.19,535.32c-1.83,0.21-3.53,0.31-5.11,0.31H569.1c-1.5,0-3.14-0.1-4.92-0.31
		c-1.79-0.21-3.41-0.46-4.86-0.75c-1.45-0.29-2.55-0.56-3.3-0.81v1.87v1.25v3.37v0.37v12.83h1.37v-1.12c0-3.57,0.98-6.4,2.93-8.47
		c1.95-2.08,4.75-3.16,8.41-3.24h14.33v62.06c-0.08,1.83-0.77,3.39-2.06,4.67c-1.29,1.29-2.89,1.93-4.8,1.93h-1.25v1.25h8.1h0.25
		h17.45h0.37h8.22v-1.25h-1.37c-1.83,0-3.43-0.64-4.8-1.93c-1.37-1.29-2.06-2.84-2.06-4.67v-62.06h14.46
		c3.57,0.08,6.38,1.16,8.41,3.24c2.03,2.08,3.01,4.9,2.93,8.47v1.12h1.37v-12.83v-0.37v-3.37v-1.25v-1.87
		c-0.58,0.25-1.62,0.52-3.12,0.81C623.68,534.87,622.02,535.12,620.19,535.32z"/>
	<path class="st0" d="M711.41,535.76h-17.32h-0.25h-8.22V537h1.37c1.91,0,3.51,0.62,4.8,1.87c1.29,1.25,1.97,2.83,2.06,4.74v27.17
		h-32.9v-27.17c0.08-1.91,0.79-3.49,2.12-4.74c1.33-1.25,2.91-1.87,4.74-1.87h1.37v-1.25h-8.22h-0.25h-17.32H643h-8.23V537
		c0.91,0,1.41,0,1.5,0c1.83,0,3.41,0.62,4.74,1.87c1.33,1.25,1.99,2.83,1.99,4.74v59.07c0,1.83-0.67,3.39-1.99,4.67
		c-1.33,1.29-2.91,1.93-4.74,1.93c-0.08,0-0.58,0-1.5,0v1.25H643h0.37h17.32h0.25h8.22v-1.25h-1.37c-1.83,0-3.41-0.64-4.74-1.93
		c-1.33-1.29-2.04-2.84-2.12-4.67v-26.92h32.9v26.92c-0.08,1.83-0.77,3.39-2.06,4.67c-1.29,1.29-2.89,1.93-4.8,1.93h-1.37v1.25h8.22
		h0.25h17.2h0.37h8.22v-1.25h-1.37c-1.91,0-3.51-0.64-4.8-1.93c-1.29-1.29-1.97-2.84-2.06-4.67v-59.07h0.12
		c0-1.91,0.66-3.49,1.99-4.74c1.33-1.25,2.95-1.87,4.86-1.87h1.37v-1.25h-8.35H711.41z"/>
	<path class="st0" d="M787.92,607.35c-1.33-1.29-1.99-2.84-1.99-4.67v-59.07c0-1.91,0.66-3.51,1.99-4.8
		c1.33-1.29,2.95-1.93,4.86-1.93c0.08,0,0.31,0,0.69,0s0.6,0,0.69,0v-1.25h-8.22h-0.37h-17.32h-0.25h-8.35v1.25
		c0.08,0,0.54,0,1.37,0c1.91,0,3.53,0.64,4.86,1.93c1.33,1.29,2.03,2.89,2.12,4.8v59.07c-0.08,1.83-0.79,3.39-2.12,4.67
		c-1.33,1.29-2.95,1.93-4.86,1.93c-0.08,0-0.5,0-1.25,0v1.25h8.22h0.25h17.32h0.37h8.22v-1.25c-0.83,0-1.29,0-1.37,0
		C790.87,609.28,789.25,608.64,787.92,607.35z"/>
	<path class="st0" d="M916.78,607.73c-1.83-1.04-3.36-2.84-4.61-5.42h0l-33.27-69.91h-1c-0.08,0.83-0.42,1.97-1,3.43
		c-0.58,1.45-1.21,2.99-1.87,4.61c-0.67,1.62-1.29,3.07-1.87,4.36c-0.58,1.29-0.96,2.18-1.12,2.68l-25.51,54.83h-0.04
		c-1.16,2.58-2.66,4.38-4.49,5.42c-1.02,0.58-2.01,0.98-2.98,1.24c-1.17-0.32-2.26-0.8-3.25-1.49c-1.74-1.2-3.41-2.97-4.98-5.3
		l-26.26-36.45l20.11-23.74l0.03,0c1.33-1.58,3.03-2.82,5.11-3.74c2.08-0.91,4.32-1.37,6.73-1.37h0.5v-1.25h-0.5H811.6v1.25h1
		c1.41,0,2.41,0.52,2.99,1.56c0.58,1.04,0.41,2.14-0.5,3.3l0.04,0l-25.58,33.9c1.5,2.16,2.87,4.11,4.11,5.86
		c1.25,1.75,2.6,3.61,4.05,5.61c1.45,1.99,2.87,3.95,4.24,5.86c1.37,1.91,2.55,3.57,3.55,4.99c1,1.41,1.7,2.41,2.12,2.99
		c1.91,2.49,4.11,4.4,6.6,5.73c2.49,1.33,4.96,2.26,7.42,2.8c2.45,0.54,4.63,0.85,6.54,0.93c1.91,0.08,3.28,0.12,4.11,0.12h3.49
		h6.11h18.82v-1.25h-1c-1.41,0-2.7-0.6-3.86-1.81c-1.13-1.17-1.27-2.82-0.45-4.96l4.97-11.55h26.33l5.29,12.47
		c0.45,1.7,0.21,3.05-0.75,4.04c-1.16,1.21-2.45,1.81-3.86,1.81h-1v1.25h36.64v-1.25h-1C920.35,609.28,918.6,608.77,916.78,607.73z
		 M862.46,586.1l11.18-25.96l11,25.96H862.46z"/>
	<path class="st0" d="M1081.27,607.73c-1.83-1.04-3.36-2.84-4.61-5.42h0l-33.27-69.91h-1c-0.08,0.83-0.42,1.97-1,3.43
		c-0.58,1.45-1.21,2.99-1.87,4.61c-0.67,1.62-1.29,3.07-1.87,4.36c-0.58,1.29-0.96,2.18-1.12,2.68l-25.51,54.83h-0.04
		c-1.16,2.58-2.66,4.38-4.49,5.42c-1.02,0.58-2.01,0.98-2.98,1.24c-0.53-0.11-1.03-0.25-1.51-0.43c-1.33-0.5-2.62-1.35-3.86-2.55
		c-1.25-1.2-2.7-2.93-4.36-5.17c-1.41-1.99-2.76-3.93-4.05-5.79c-1.29-1.87-2.35-3.53-3.18-4.99c-0.83-1.45-1.41-2.51-1.74-3.18
		c-1.25-1.91-2.97-3.94-5.17-6.11c-2.2-2.16-4.51-3.61-6.92-4.36c4.07-0.66,7.37-2.03,9.91-4.11c2.53-2.08,4.4-4.55,5.61-7.42
		c1.2-2.87,1.81-5.75,1.81-8.66c0-3.9-0.77-7.17-2.31-9.78c-1.54-2.62-3.59-4.69-6.17-6.23c-2.58-1.54-5.48-2.66-8.72-3.37
		c-3.24-0.7-6.56-1.06-9.97-1.06h-12.21h-1.25h-15.95h-0.87h-8.1V537c0.08,0,0.31,0,0.69,0s0.69,0,0.93,0c1.74,0,3.26,0.6,4.55,1.81
		c1.06,0.99,1.69,2.24,1.93,3.71v61.09c-0.24,1.43-0.87,2.68-1.93,3.74c-1.29,1.29-2.85,1.93-4.67,1.93c-0.17,0-0.44,0-0.81,0
		s-0.6,0-0.69,0v1.25h8.1h0.87h16.33h0.87h8.1v-1.25c-0.17,0-0.58,0-1.25,0c-1.66,0-3.22-0.58-4.67-1.75
		c-1.46-1.16-2.18-2.78-2.18-4.86v-61.8c0.66,0.07,1.59,0.09,2.8,0.05c1.29-0.04,2.72-0.02,4.3,0.06c1.08,0,2.35,0.19,3.8,0.56
		c1.45,0.37,2.88,1.04,4.3,1.99c1.41,0.96,2.6,2.37,3.55,4.24c0.95,1.87,1.51,4.34,1.68,7.42c0.08,1.16,0.06,2.2-0.06,3.12
		c-0.12,0.92-0.27,1.62-0.44,2.12c-0.67,3.49-1.7,6.13-3.12,7.91c-1.41,1.79-2.97,2.99-4.67,3.61c-1.7,0.62-3.43,0.93-5.17,0.93
		c-0.92,0-1.95,0-3.12,0v1.12c1.16,0,2.43,0.6,3.8,1.81c1.37,1.21,2.6,3.14,3.68,5.79c0.25,1,0.69,2.24,1.31,3.74
		s1.35,3.03,2.18,4.61c0.83,1.58,1.66,3.14,2.49,4.67c0.83,1.54,1.62,2.85,2.37,3.93c1.91,3.07,4.01,5.5,6.29,7.29
		c2.28,1.79,4.99,3.01,8.1,3.68c3.12,0.67,6.92,1,11.4,1h4.11h6.36h18.57v-1.25h-1c-1.41,0-2.7-0.6-3.86-1.81
		c-1.13-1.17-1.27-2.82-0.45-4.96l4.97-11.55h26.33l5.29,12.47c0.45,1.7,0.21,3.05-0.75,4.04c-1.16,1.21-2.45,1.81-3.86,1.81h-1
		v1.25h36.64v-1.25h-1C1084.84,609.28,1083.1,608.77,1081.27,607.73z M1026.95,586.1l11.18-25.96l11,25.96H1026.95z"/>
	<path class="st0" d="M1171.43,556.94c-2.12-4.82-5.13-8.93-9.03-12.34c-3.91-3.41-8.56-6-13.96-7.79
		c-5.4-1.79-11.42-2.68-18.07-2.68c-6.56,0-12.54,0.89-17.94,2.68c-5.4,1.79-10.05,4.38-13.96,7.79c-3.91,3.41-6.9,7.52-8.97,12.34
		c-2.08,4.82-3.12,10.26-3.12,16.33c0,5.98,1.04,11.36,3.12,16.14c2.08,4.78,5.07,8.87,8.97,12.28c3.9,3.41,8.56,6,13.96,7.79
		c5.4,1.79,11.38,2.68,17.94,2.68c6.65,0,12.67-0.89,18.07-2.68c5.4-1.79,10.05-4.38,13.96-7.79c-3.9-3.41,6.92-7.5,9.03-12.28
		c2.12-4.78,3.18-10.16,3.18-16.14C1174.61,567.21,1173.55,561.76,1171.43,556.94z M1152.36,591.34c-2.04,5.07-4.94,8.99-8.72,11.78
		c-3.78,2.79-8.21,4.17-13.27,4.17c-4.98,0-9.35-1.39-13.08-4.17c-3.74-2.78-6.65-6.71-8.72-11.78c-2.08-5.07-3.12-11.09-3.12-18.07
		c0-7.06,1.04-13.15,3.12-18.26c2.08-5.11,4.98-9.05,8.72-11.84c3.74-2.78,8.1-4.17,13.08-4.17c5.07,0,9.49,1.39,13.27,4.17
		c3.78,2.78,6.69,6.73,8.72,11.84c2.04,5.11,3.05,11.2,3.05,18.26C1155.42,580.25,1154.4,586.27,1152.36,591.34z"/>
</g>
</svg>
